<svg width="55" height="55" viewBox="0 0 55 55" fill="none" xmlns="http://www.w3.org/2000/svg">
<path d="M54.3188 6.13154C53.8822 4.93563 53.2578 3.86183 52.4626 2.94067C51.6668 2.01885 50.7404 1.29546 49.7085 0.789753C48.6395 0.265463 47.5051 0 46.3358 0H23.7325C22.5637 0 21.4288 0.265463 20.3597 0.789753C19.3279 1.29546 18.4015 2.01885 17.6063 2.94067C16.8111 3.86183 16.186 4.93563 15.7501 6.13154C15.2974 7.36992 15.0683 8.68463 15.0683 10.0398V13.0953H8.66422C7.49547 13.0953 6.35995 13.3608 5.29146 13.8851C4.25964 14.3908 3.33323 15.1141 2.53745 16.036C1.74224 16.9571 1.11776 18.0309 0.681198 19.2268C0.229167 20.4652 0 21.7799 0 23.1345V36.2298C0 38.2533 0.517344 40.2044 1.49646 41.8715C2.45151 43.4975 3.78182 44.7544 5.34474 45.5057C6.00187 45.8223 6.36854 46.6366 6.21615 47.4423L5.09151 53.4105C4.98839 53.9554 5.19464 54.5155 5.60542 54.8069C5.7876 54.9363 5.99156 55 6.19495 55C6.45104 55 6.70542 54.8991 6.91224 54.7027L13.1817 48.741C14.8569 47.1476 16.9732 46.2696 19.1411 46.2696H31.2669C32.4362 46.2696 33.5712 46.0041 34.6403 45.4805C35.6721 44.9748 36.5985 44.2507 37.3937 43.3296C38.1889 42.4078 38.814 41.334 39.2499 40.1387C39.7025 38.8997 39.9317 37.5849 39.9317 36.2304V34.2501C40.6037 34.6244 41.2351 35.0909 41.8189 35.6457L48.0878 41.6074C48.2946 41.8045 48.549 41.9047 48.805 41.9047C49.0084 41.9047 49.213 41.841 49.3946 41.7122C49.8054 41.4209 50.011 40.8608 49.9085 40.3159L48.7839 34.3476C48.6315 33.5413 48.9987 32.727 49.6558 32.4111C51.2182 31.6591 52.5491 30.4022 53.5035 28.7769C54.4827 27.1091 55 25.1586 55 23.1351V10.0398C55 8.68463 54.7708 7.36992 54.3188 6.13154ZM37.671 36.2298C37.671 40.3219 34.7984 43.6508 31.2669 43.6508H19.1411C16.4519 43.6508 13.8256 44.7392 11.7477 46.7162L7.99391 50.2854L8.42474 48.0017C8.81031 45.9563 7.8799 43.8897 6.21156 43.0867C3.81104 41.9326 2.26016 39.2408 2.26016 36.2298V23.1345C2.26016 19.043 5.13276 15.7141 8.66422 15.7141H31.2669C31.3225 15.7141 31.3775 15.7148 31.4319 15.7168C33.8451 15.7878 35.931 17.4137 36.9697 19.7598C37.0167 19.8666 37.062 19.9748 37.1049 20.0843C37.2115 20.3577 37.3049 20.6404 37.3828 20.9311C37.4143 21.0473 37.443 21.1647 37.4693 21.2829C37.4957 21.401 37.5197 21.5211 37.5415 21.6412C37.6269 22.1237 37.6716 22.6234 37.6716 23.1351V36.2298H37.671ZM52.7398 23.1345C52.7398 26.1461 51.189 28.8373 48.789 29.992C47.1207 30.7944 46.1897 32.8617 46.5753 34.9064L47.0061 37.1907L43.2529 33.6209C42.2509 32.6686 41.1371 31.9259 39.9317 31.4063V23.1351C39.9317 21.7799 39.7025 20.4652 39.2499 19.2268C39.223 19.1518 39.1949 19.0775 39.1663 19.0038C38.7928 18.0449 38.2955 17.1675 37.6842 16.3884C37.5896 16.2682 37.4934 16.1508 37.3937 16.036C36.5985 15.1141 35.6721 14.3908 34.6403 13.8851C33.5712 13.3608 32.4362 13.0953 31.2669 13.0953H17.329V10.0398C17.329 5.94837 20.2016 2.61946 23.7325 2.61946H46.3358C49.8667 2.61946 52.7393 5.9477 52.7393 10.0398V23.1345H52.7398Z" fill="white"/>
<path d="M31.2672 21.8257H8.66446C8.04055 21.8257 7.53467 22.4118 7.53467 23.1351C7.53467 23.8585 8.04055 24.4445 8.66446 24.4445H31.2677C31.8916 24.4445 32.3975 23.8585 32.3975 23.1351C32.3975 22.4118 31.8916 21.8257 31.2672 21.8257Z" fill="white"/>
<path d="M19.9664 30.5555H8.66446C8.04055 30.5555 7.53467 31.1415 7.53467 31.8649C7.53467 32.5883 8.04055 33.1743 8.66446 33.1743H19.9664C20.5903 33.1743 21.0962 32.5883 21.0962 31.8649C21.0962 31.1415 20.5903 30.5555 19.9664 30.5555Z" fill="white"/>
</svg>
