<svg width="50" height="49" viewBox="0 0 50 49" fill="none" xmlns="http://www.w3.org/2000/svg">
<path d="M7.69961 35.7056C4.00361 35.7056 0.995605 38.6861 0.995605 42.3551C0.995605 46.0251 4.00261 48.9951 7.69961 48.9951C11.3976 48.9951 14.3946 46.0266 14.3946 42.3551C14.3936 38.6861 11.3961 35.7056 7.69961 35.7056Z" fill="white"/>
<path d="M1.55787 17.0586C1.43187 17.0586 1.30637 17.0796 1.19287 17.0796V25.9416C1.30637 25.9391 1.43187 25.9241 1.55787 25.9241C13.8664 25.9241 23.8859 35.8611 23.8859 48.0776C23.8859 48.2626 23.8634 48.4431 23.8584 48.6341H32.7854C32.7904 48.4451 32.8174 48.2626 32.8174 48.0776C32.8184 30.9766 18.7944 17.0586 1.55787 17.0586Z" fill="white"/>
<path d="M1.55937 0.996582C1.43285 0.996582 1.30684 1.00666 1.19287 1.00666V9.9343C1.30684 9.9343 1.43285 9.92674 1.55937 9.92674C22.8809 9.92674 40.2303 27.2062 40.2303 48.4354C40.2303 48.6223 40.2167 48.8036 40.2127 48.9966H49.1818C49.1879 48.8056 49.1929 48.6223 49.1929 48.4354C49.1934 22.2796 27.8311 0.996582 1.55937 0.996582Z" fill="white"/>
</svg>
