<svg width="52" height="52" viewBox="0 0 52 52" fill="none" xmlns="http://www.w3.org/2000/svg">
<path d="M44.3851 7.61545C39.4742 2.7046 32.9449 0 26 0C19.0551 0 12.5263 2.7046 7.61545 7.61545C2.7046 12.5258 0 19.0551 0 26C0 32.9449 2.7046 39.4742 7.61545 44.3851C12.5263 49.2959 19.0551 52 26 52C32.9449 52 39.4742 49.2959 44.3851 44.3851C49.2959 39.4742 52 32.9449 52 26C52 19.0551 49.2959 12.5258 44.3851 7.61545ZM8.79522 8.79522C13.3908 4.19963 19.5009 1.66837 26 1.66837C32.4996 1.66837 38.6097 4.19963 43.2053 8.79522C47.8009 13.3908 50.3316 19.5009 50.3316 26C50.3316 31.4027 48.5809 36.5362 45.3509 40.7542C42.7801 37.1602 38.6753 35.0363 34.2173 35.0363H17.7827C13.3247 35.0363 9.2199 37.1602 6.6491 40.7542C3.41907 36.5356 1.66837 31.4027 1.66837 26C1.66837 19.5009 4.19963 13.3908 8.79522 8.79522ZM26 33.6658C32.6805 33.6658 38.1152 28.2312 38.1152 21.5507C38.1152 14.8707 32.6805 9.43603 26 9.43603C19.32 9.43603 13.8854 14.8707 13.8854 21.5507C13.8854 28.2312 19.32 33.6658 26 33.6658Z" fill="white"/>
</svg>
