<svg width="28" height="28" viewBox="0 0 28 28" fill="none" xmlns="http://www.w3.org/2000/svg">
<path d="M18.1575 19.9369L18.4599 20.239L25.3638 27.1343C25.3638 27.1343 25.3638 27.1343 25.3638 27.1344C25.8521 27.6219 26.6456 27.6219 27.1342 27.1342L18.1575 19.9369ZM18.1575 19.9369L17.812 20.1887M18.1575 19.9369L17.812 20.1887M17.812 20.1887C16.012 21.5012 13.7958 22.2757 11.3982 22.2757C5.38314 22.2757 0.5 17.3963 0.5 11.3877C0.5 5.37908 5.38312 0.5 11.3982 0.5C17.4134 0.5 22.2965 5.37908 22.2965 11.3877C22.2965 13.7966 21.5123 16.0227 20.1854 17.8258L19.9305 18.1721M17.812 20.1887L19.9305 18.1721M19.9305 18.1721L20.2348 18.4759M19.9305 18.1721L20.2348 18.4759M20.2348 18.4759L27.1339 25.3662C27.1339 25.3662 27.134 25.3663 27.134 25.3663M20.2348 18.4759L27.134 25.3663M27.134 25.3663C27.6219 25.8542 27.622 26.6464 27.1344 27.134L27.134 25.3663ZM19.7933 11.3877C19.7933 6.75784 16.0311 3 11.3982 3C6.76503 3 3.00348 6.75788 3.00348 11.3877C3.00348 16.0178 6.76502 19.7757 11.3982 19.7757C16.0311 19.7757 19.7933 16.0178 19.7933 11.3877Z" stroke="black" stroke-opacity="0.34"/>
</svg>
