<svg width="52" height="40" viewBox="0 0 52 40" fill="none" xmlns="http://www.w3.org/2000/svg">
<path d="M49.709 11.9603C50.5472 12.9751 52 12.2647 52 10.81V1.62367C52 0.727384 51.3994 0 50.659 0H43.0719C41.8708 0 41.2697 1.74218 42.1219 2.774L44.9725 6.22499L29.7848 24.5969L21.2618 14.261C20.7309 13.618 19.8787 13.618 19.3618 14.261L0.38764 37.2171C-0.129213 37.8601 -0.129213 38.8919 0.38764 39.5178C0.918539 40.1607 1.75674 40.1607 2.28764 39.5178L20.3118 17.6949L28.8489 28.0309C29.3657 28.6738 30.218 28.6738 30.7348 28.0309L46.8584 8.50931L49.709 11.9603Z" fill="#FFFFFF"/>
</svg>
