<svg width="20" height="29" viewBox="0 0 20 29" fill="none" xmlns="http://www.w3.org/2000/svg">
<path d="M17.5004 3.24409H13.7692C13.4938 1.41089 11.9084 0 9.9997 0C8.09098 0 6.50566 1.41089 6.23023 3.24409H2.49956C1.12125 3.24409 0 4.36534 0 5.74365V8.75111C0 9.06503 0.254694 9.31973 0.568619 9.31973H1.21276V24.6052C1.21276 26.7147 2.92898 28.431 5.0385 28.431H14.9615C17.071 28.431 18.7872 26.7147 18.7872 24.6052V9.31973H19.4314C19.7453 9.31973 20 9.06503 20 8.75111V5.74365C20 4.36534 18.8788 3.24409 17.5004 3.24409ZM9.9997 1.13724C11.2797 1.13724 12.3521 2.0414 12.613 3.24409H7.38642C7.64734 2.0414 8.71972 1.13724 9.9997 1.13724ZM17.65 24.6052C17.65 26.0878 16.4438 27.2937 14.9615 27.2937H5.0385C3.55624 27.2937 2.35 26.0878 2.35 24.6052V9.31973H17.65V24.6052ZM18.8628 8.18249H1.13724V5.74365C1.13724 4.9926 1.7485 4.38133 2.49956 4.38133H17.5004C18.2515 4.38133 18.8628 4.9926 18.8628 5.74365V8.18249ZM5.02369 23.4878V11.5362C5.02369 11.2222 5.27839 10.9675 5.59231 10.9675C5.90624 10.9675 6.16093 11.2222 6.16093 11.5362V23.4878C6.16093 23.8018 5.90624 24.0564 5.59231 24.0564C5.27839 24.0564 5.02369 23.8018 5.02369 23.4878ZM9.5762 23.4878V11.5362C9.5762 11.2222 9.83089 10.9675 10.1448 10.9675C10.4584 10.9675 10.7134 11.2222 10.7134 11.5362V23.4878C10.7134 23.8018 10.4584 24.0564 10.1448 24.0564C9.83089 24.0564 9.5762 23.8018 9.5762 23.4878ZM14.129 23.4878V11.5362C14.129 11.2222 14.3837 10.9675 14.6976 10.9675C15.0115 10.9675 15.2662 11.2222 15.2662 11.5362V23.4878C15.2662 23.8018 15.0115 24.0564 14.6976 24.0564C14.3837 24.0564 14.129 23.8018 14.129 23.4878Z" fill="black" fill-opacity="0.6"/>
</svg>
